<?xml version="1.0" standalone="no"?>
<!DOCTYPE svg PUBLIC "-//W3C//DTD SVG 20010904//EN"
 "http://www.w3.org/TR/2001/REC-SVG-20010904/DTD/svg10.dtd">
<svg version="1.0" xmlns="http://www.w3.org/2000/svg"
 width="1678.000000pt" height="1678.000000pt" viewBox="0 0 1678.000000 1678.000000"
 preserveAspectRatio="xMidYMid meet">

<g transform="translate(0.000000,1678.000000) scale(0.100000,-0.100000)"
fill="#000000" stroke="none">
<path d="M7970 16774 c-25 -2 -115 -8 -200 -14 -348 -24 -810 -90 -1150 -165
-1591 -348 -3006 -1121 -4155 -2270 -1340 -1340 -2182 -3071 -2399 -4935 -45
-388 -51 -502 -51 -995 0 -493 6 -607 51 -995 217 -1864 1059 -3595 2399
-4935 1340 -1340 3071 -2182 4935 -2399 388 -45 502 -51 995 -51 493 0 607 6
995 51 1864 217 3595 1059 4935 2399 1340 1340 2182 3071 2399 4935 45 388 51
502 51 995 0 493 -6 607 -51 995 -217 1864 -1059 3595 -2399 4935 -819 819
-1770 1446 -2836 1868 -774 307 -1526 484 -2399 563 -163 15 -993 28 -1120 18z
m1000 -204 c2022 -151 3856 -998 5265 -2431 615 -626 1106 -1311 1493 -2085
429 -858 705 -1794 811 -2759 36 -327 45 -504 45 -900 0 -396 -9 -573 -45
-900 -171 -1551 -771 -3000 -1744 -4215 -353 -441 -781 -874 -1210 -1225
-1138 -932 -2507 -1542 -3946 -1759 -446 -68 -758 -90 -1244 -90 -486 0 -798
22 -1244 90 -2020 305 -3866 1373 -5156 2984 -899 1122 -1481 2449 -1699 3870
-67 437 -90 757 -90 1245 0 488 23 808 90 1245 311 2031 1372 3864 2984 5155
1030 825 2236 1385 3526 1639 406 80 794 126 1269 150 129 7 748 -3 895 -14z"/>
<path d="M8528 15479 c-26 -342 -46 -625 -43 -627 6 -6 246 -25 251 -19 2 2
14 121 25 263 11 142 21 259 22 260 5 4 556 -42 561 -47 3 -3 -3 -118 -14
-255 -11 -137 -20 -254 -20 -260 0 -12 246 -32 256 -21 3 3 27 283 52 624 l47
618 -35 6 c-19 4 -78 10 -131 13 l-95 7 -19 -257 -18 -256 -61 6 c-34 3 -160
13 -281 22 -121 9 -222 18 -224 20 -2 2 5 116 15 254 17 223 18 251 4 254 -8
3 -67 8 -130 11 l-115 7 -47 -623z"/>
<path d="M7610 16048 c-57 -5 -105 -10 -106 -11 -7 -9 -336 -1278 -333 -1282
7 -7 253 15 260 23 3 4 21 73 39 154 l33 148 31 5 c17 2 103 9 191 15 88 6
174 13 191 15 l31 5 59 -151 59 -150 80 6 c181 13 197 16 190 34 -3 9 -121
283 -263 608 l-257 593 -50 -2 c-27 0 -97 -5 -155 -10z m165 -486 c54 -134 95
-246 91 -249 -7 -7 -308 -33 -315 -27 -3 3 102 475 115 513 2 8 6 12 8 10 2
-2 48 -113 101 -247z"/>
<path d="M9985 15318 c-110 -325 -201 -593 -203 -597 -1 -3 48 -23 108 -43
l111 -37 8 22 c4 12 66 192 136 400 70 207 130 375 133 372 3 -3 18 -204 33
-446 15 -243 31 -445 36 -449 8 -7 131 -50 144 -50 4 0 136 150 295 333 158
182 292 337 297 342 17 18 1 -34 -130 -422 l-130 -382 109 -37 c60 -20 111
-34 112 -33 5 6 403 1184 401 1186 -1 2 -65 25 -143 53 l-141 49 -312 -364
c-171 -201 -314 -365 -318 -365 -4 0 -17 204 -30 453 -13 248 -26 465 -30 481
-6 28 -15 32 -147 76 l-140 47 -199 -589z"/>
<path d="M5948 15710 c-204 -35 -374 -144 -444 -286 -25 -52 -29 -70 -29 -149
0 -82 3 -97 33 -157 38 -78 93 -129 167 -157 81 -30 156 -34 314 -17 192 21
245 21 297 -4 43 -21 74 -67 74 -109 0 -93 -128 -193 -266 -207 -81 -9 -139 9
-186 56 l-39 38 -111 -37 c-62 -21 -113 -42 -115 -47 -2 -5 11 -34 29 -64 105
-175 332 -216 606 -110 161 62 283 177 319 299 48 166 -40 367 -185 421 -83
31 -156 35 -345 15 -102 -11 -191 -15 -219 -11 -117 18 -159 133 -82 225 56
67 211 110 297 82 37 -12 77 -44 94 -75 10 -18 17 -16 124 19 63 21 115 39
117 40 2 2 -6 22 -18 45 -75 147 -244 221 -432 190z"/>
<path d="M4553 15057 c-67 -40 -124 -74 -127 -78 -6 -6 230 -1264 242 -1291 6
-14 22 -7 114 46 59 34 109 64 113 67 3 4 -10 76 -29 160 -19 85 -33 155 -33
155 1 1 88 51 193 111 l191 110 118 -108 118 -108 61 35 c34 19 87 49 119 67
31 17 56 35 55 39 -5 12 -996 868 -1005 867 -4 0 -63 -33 -130 -72z m322 -396
c134 -125 190 -183 182 -189 -28 -21 -268 -154 -272 -151 -4 5 -115 496 -115
511 0 4 3 8 6 8 3 0 93 -81 199 -179z"/>
<path d="M11675 14664 c-269 -234 -495 -430 -502 -437 -9 -9 14 -27 104 -79
l117 -67 116 109 117 110 184 -106 c101 -58 188 -109 193 -114 5 -5 -5 -70
-23 -149 -17 -78 -31 -148 -31 -155 0 -13 227 -153 235 -145 4 5 245 1278 245
1296 0 8 -214 141 -260 160 -3 2 -225 -189 -495 -423z m449 -115 c-31 -140
-59 -257 -63 -261 -8 -9 -281 144 -278 155 3 10 390 367 394 363 2 -1 -22
-117 -53 -257z"/>
<path d="M3533 14377 c-205 -177 -372 -326 -372 -330 -1 -5 29 -44 66 -87 l67
-80 26 24 c14 12 76 67 138 121 l113 98 23 -24 c13 -13 166 -190 341 -392 174
-202 321 -367 326 -365 18 6 190 161 187 168 -3 7 -596 696 -654 760 l-23 25
139 120 c108 93 137 122 130 134 -5 9 -37 46 -72 83 l-63 67 -372 -322z"/>
<path d="M12829 14153 c-156 -180 -341 -394 -411 -474 l-127 -147 200 -173
c111 -96 230 -193 265 -216 173 -112 364 -121 548 -26 92 48 255 207 314 308
102 174 119 350 48 509 -44 98 -110 170 -326 358 -117 100 -215 184 -220 186
-4 1 -135 -145 -291 -325z m512 -154 c79 -78 109 -145 109 -242 -1 -143 -131
-331 -290 -417 -59 -31 -73 -35 -145 -35 -67 0 -89 4 -135 27 -51 25 -235 172
-240 192 -1 4 118 147 265 317 l268 309 51 -43 c28 -23 81 -72 117 -108z"/>
<path d="M8155 14414 c-1422 -66 -2736 -600 -3782 -1538 -786 -706 -1375
-1608 -1702 -2609 -203 -622 -294 -1203 -294 -1872 0 -346 14 -554 58 -863
137 -951 501 -1856 1061 -2638 820 -1148 2026 -1977 3386 -2328 509 -132 967
-189 1513 -189 346 0 554 14 864 59 1175 169 2269 681 3158 1478 881 790 1512
1828 1807 2968 132 510 189 966 189 1513 0 346 -14 555 -59 864 -200 1394
-886 2674 -1937 3617 -431 386 -870 681 -1398 938 -661 322 -1367 516 -2110
581 -175 15 -603 26 -754 19z m795 -219 c1204 -123 2264 -568 3195 -1341 169
-140 571 -543 709 -709 789 -952 1231 -2021 1348 -3260 8 -85 13 -277 13 -490
0 -213 -5 -405 -13 -490 -117 -1239 -560 -2309 -1348 -3260 -139 -167 -542
-570 -709 -709 -707 -587 -1486 -983 -2347 -1195 -498 -123 -861 -166 -1403
-166 -542 0 -905 43 -1403 166 -861 212 -1640 608 -2347 1195 -167 139 -570
542 -709 709 -788 951 -1231 2021 -1348 3260 -8 85 -13 277 -13 490 0 213 5
405 13 490 117 1239 560 2309 1348 3260 139 167 542 570 709 709 411 341 828
607 1289 822 614 287 1310 472 1971 524 77 5 158 12 180 14 100 10 720 -4 865
-19z"/>
<path d="M8305 13993 l-86 -116 6 -146 c7 -169 55 -1758 55 -1826 l0 -45 115
0 115 0 0 40 c0 64 48 1657 55 1826 l7 150 -87 117 c-48 64 -88 117 -90 117
-2 0 -42 -53 -90 -117z"/>
<path d="M7891 13312 l-74 -117 72 -670 c40 -368 74 -675 76 -680 2 -7 34 -7
100 -1 l96 9 -5 46 c-3 25 -15 338 -28 695 l-22 649 -66 93 c-36 52 -67 94
-70 94 -3 0 -38 -53 -79 -118z"/>
<path d="M8750 13338 l-65 -93 -21 -590 c-12 -324 -24 -638 -27 -696 l-4 -106
94 -9 c64 -6 96 -6 98 1 2 5 36 312 76 680 l72 670 -74 117 c-41 65 -76 118
-79 118 -3 0 -34 -42 -70 -92z"/>
<path d="M5486 13204 c-7 -150 -6 -157 16 -192 40 -65 1050 -1677 1052 -1680
2 -2 80 43 163 93 2 1 -199 389 -446 864 l-448 863 -162 104 c-89 57 -163 104
-165 104 -2 0 -6 -70 -10 -156z"/>
<path d="M11126 13255 l-159 -103 -448 -863 c-247 -475 -448 -863 -446 -864
86 -53 161 -95 163 -93 2 3 1014 1618 1052 1680 22 35 23 42 16 192 -4 86 -10
156 -13 155 -3 0 -78 -47 -165 -104z"/>
<path d="M6176 12917 c-3 -28 -6 -80 -6 -115 l0 -63 281 -547 c155 -301 301
-584 326 -629 l44 -82 81 39 c44 22 83 41 85 43 2 3 -113 283 -256 623 l-259
619 -78 45 c-44 26 -109 63 -145 83 l-66 36 -7 -52z"/>
<path d="M10465 12890 c-88 -49 -144 -87 -152 -101 -31 -63 -513 -1222 -510
-1226 2 -2 41 -21 85 -43 l81 -39 44 82 c25 45 171 328 326 629 l281 547 -1
78 c0 43 -3 95 -7 115 l-7 36 -140 -78z"/>
<path d="M7571 12699 l-54 -122 68 -391 c37 -215 70 -394 74 -397 3 -4 45 1
94 9 l87 17 0 34 c0 48 -59 788 -66 826 -4 21 -24 46 -70 85 -36 30 -68 56
-72 57 -4 2 -31 -52 -61 -118z"/>
<path d="M9125 12793 c-16 -14 -48 -42 -69 -61 l-40 -35 -32 -396 c-18 -218
-33 -416 -34 -441 l0 -45 88 -17 c48 -8 90 -13 93 -9 4 3 37 182 74 397 l68
391 -54 122 c-30 66 -56 121 -59 121 -3 -1 -18 -12 -35 -27z"/>
<path d="M6756 12530 l-17 -90 177 -408 c97 -224 179 -410 183 -414 7 -8 171
51 171 61 0 4 -56 182 -124 395 l-123 389 -119 78 c-66 43 -122 79 -125 79 -4
0 -14 -41 -23 -90z"/>
<path d="M9886 12541 l-119 -78 -123 -389 c-68 -213 -124 -391 -124 -395 0
-10 164 -69 171 -61 4 4 86 190 184 414 l176 407 -16 90 c-10 50 -20 91 -24
91 -3 0 -59 -36 -125 -79z"/>
<path d="M5456 12463 c-3 -42 -6 -104 -6 -138 l0 -62 411 -534 c226 -294 419
-542 429 -552 17 -18 20 -17 93 35 l75 55 -392 593 -393 593 -103 43 c-56 24
-103 44 -104 44 -2 0 -6 -34 -10 -77z"/>
<path d="M11216 12496 l-99 -43 -392 -593 -393 -593 75 -55 c73 -52 76 -53 93
-35 10 10 203 258 429 552 l411 534 0 77 c0 91 -10 200 -19 199 -3 0 -50 -20
-105 -43z"/>
<path d="M7385 12350 c-22 -28 -43 -50 -47 -50 -4 0 -30 5 -58 11 -28 6 -54 9
-56 6 -5 -4 173 -587 181 -596 2 -2 37 6 77 16 60 17 73 24 71 39 -3 28 -123
617 -126 620 -2 2 -21 -19 -42 -46z"/>
<path d="M9360 12399 c0 -4 -27 -141 -60 -305 -34 -165 -62 -307 -63 -318 -2
-15 11 -22 71 -39 40 -10 75 -18 77 -16 8 9 186 591 181 596 -2 3 -30 -1 -62
-7 -48 -10 -59 -10 -68 2 -28 37 -76 92 -76 87z"/>
<path d="M5423 11816 c4 -9 16 -67 29 -130 l22 -115 302 -302 302 -302 70 59
c39 33 71 62 71 65 2 12 -590 705 -611 715 -13 7 -61 15 -107 19 -74 6 -83 5
-78 -9z"/>
<path d="M11237 11820 c-33 -4 -65 -14 -72 -21 -37 -38 -595 -703 -594 -708 0
-3 32 -32 71 -65 l70 -59 302 302 302 301 23 118 c13 64 26 123 28 130 6 14
-34 14 -130 2z"/>
<path d="M8387 11596 c-4 -10 -2 -36 3 -57 12 -44 7 -59 -20 -59 -21 0 -30 19
-30 63 0 44 -15 67 -25 38 -3 -11 -4 -25 0 -30 3 -6 3 -22 -1 -36 -4 -18 -13
-25 -30 -25 -31 0 -39 20 -26 70 8 31 7 40 -3 40 -7 0 -15 -6 -17 -12 -10 -27
-8 -99 2 -118 13 -24 52 -26 71 -4 11 14 13 14 21 0 13 -23 44 -20 62 6 17 23
20 89 7 122 -7 18 -8 18 -14 2z"/>
<path d="M7542 11568 c-35 -109 -45 -226 -23 -267 14 -26 45 -43 65 -35 17 7
36 55 36 93 l0 26 -26 -32 c-21 -27 -29 -31 -45 -23 -23 13 -25 76 -4 190 14
82 13 100 -3 48z"/>
<path d="M8509 11543 l-37 -60 6 -157 c3 -89 1 -156 -4 -156 -5 0 -49 -7 -98
-15 l-89 -15 -76 31 c-42 17 -89 39 -106 49 l-30 20 29 0 c22 0 26 3 18 13
-14 16 -150 82 -157 75 -3 -2 -2 -25 1 -49 6 -38 14 -51 63 -92 31 -27 63 -52
71 -57 8 -5 12 -11 10 -14 -9 -8 -344 -46 -410 -46 -70 0 -114 19 -104 45 3 8
55 39 115 70 126 65 156 92 214 195 33 58 48 76 67 78 20 2 29 -4 42 -31 9
-19 16 -46 17 -59 1 -46 18 14 18 68 2 92 -34 148 -78 125 -10 -6 -35 -42 -56
-82 -55 -105 -95 -144 -204 -199 -106 -53 -130 -74 -160 -140 -40 -88 -19
-151 56 -166 37 -7 289 18 501 50 145 22 154 22 190 6 20 -10 46 -27 57 -40
l20 -22 -30 -24 c-34 -27 -235 -171 -277 -198 l-27 -18 -21 42 c-29 56 -91
117 -130 125 -30 7 -31 8 -25 48 l6 42 -20 -36 c-17 -30 -27 -37 -63 -43 -24
-4 -95 -31 -158 -61 -114 -53 -254 -105 -284 -105 -9 0 -16 4 -16 10 0 24 63
177 112 274 53 103 55 108 45 151 -6 25 -13 45 -17 45 -4 0 -40 -65 -81 -145
-84 -164 -85 -165 -199 -165 -56 0 -77 5 -131 33 -35 17 -65 37 -66 43 -6 19
68 105 129 150 33 24 82 52 109 61 27 10 49 21 49 24 0 8 -53 19 -89 19 -15 0
-52 -7 -82 -16 -71 -21 -123 -75 -144 -149 -15 -50 -15 -60 -1 -109 17 -58 47
-90 120 -129 32 -16 59 -21 119 -22 l78 0 -7 -40 c-3 -22 -8 -42 -11 -45 -3
-3 -30 -5 -61 -4 -104 1 -131 21 -309 225 -88 101 -172 198 -187 214 l-27 30
7 -74 6 -75 89 -101 c165 -187 362 -454 424 -573 20 -38 25 -60 21 -80 -31
-126 -28 -176 10 -221 l23 -27 -33 -26 c-70 -56 -116 -171 -146 -363 -21 -139
-38 -182 -77 -191 -67 -17 -106 31 -148 186 l-25 95 4 -78 c2 -65 9 -89 37
-145 45 -88 84 -115 157 -110 57 5 96 32 114 78 5 14 16 80 24 147 8 68 21
144 30 170 22 63 67 126 117 160 35 24 50 28 109 27 74 0 74 0 57 59 -9 35
-12 37 -52 37 -59 0 -111 17 -147 46 -36 30 -37 51 -9 106 37 72 9 183 -80
318 -27 41 -48 75 -48 75 1 1 27 -1 58 -3 l56 -4 6 -67 c13 -157 74 -305 161
-393 115 -117 235 -142 369 -75 45 22 94 37 129 41 124 13 317 92 428 175 70
53 130 147 130 205 l0 41 44 -51 c54 -61 127 -101 300 -165 79 -29 130 -53
128 -60 -9 -34 -5 -130 7 -171 15 -53 66 -119 120 -153 47 -29 164 -71 224
-80 43 -7 47 -10 47 -34 0 -46 29 -116 65 -159 55 -63 133 -110 258 -155 16
-6 15 -10 -11 -44 -164 -210 111 -477 524 -509 74 -6 86 -4 140 20 144 66 268
289 208 375 -50 70 -203 65 -273 -10 -34 -37 -27 -77 30 -164 55 -85 70 -133
46 -153 -28 -24 -273 36 -391 95 -170 85 -257 220 -211 324 l18 40 71 -8 c180
-20 294 -3 345 51 l23 24 53 -24 c70 -32 159 -49 217 -40 66 10 156 71 196
133 66 103 92 233 61 299 -20 41 -74 66 -124 58 -90 -14 -169 -80 -169 -139 0
-30 10 -46 71 -108 79 -80 97 -109 88 -137 -12 -39 -144 -39 -246 0 -84 31
-84 31 -70 83 46 184 -49 271 -215 198 -103 -46 -112 -113 -27 -202 l34 -36
-51 -7 c-29 -4 -87 -18 -131 -32 l-78 -25 -80 31 c-100 39 -191 105 -225 163
-14 24 -26 48 -26 53 0 6 53 15 118 22 176 18 244 40 303 98 88 86 159 263
144 355 -15 87 -83 123 -178 95 -97 -28 -152 -95 -128 -154 7 -16 48 -64 91
-107 81 -80 92 -104 67 -139 -19 -26 -163 -47 -298 -44 l-114 3 38 41 c42 47
126 95 210 119 54 16 83 39 35 28 -121 -27 -250 -86 -313 -144 l-43 -40 -87
20 c-182 44 -258 108 -280 240 -6 35 -5 43 6 39 25 -9 291 -76 396 -99 l101
-22 28 22 c15 12 38 36 51 54 22 28 24 40 20 90 -7 74 -46 154 -99 202 -35 32
-152 94 -222 119 -18 6 -16 10 14 41 40 41 26 45 -32 9 l-41 -26 -216 72
c-119 40 -238 84 -265 99 -44 23 -77 63 -64 76 3 3 44 21 91 41 114 46 227 74
300 74 55 0 62 -3 92 -34 l32 -35 12 38 c6 21 11 55 11 75 0 33 -4 39 -37 53
-124 51 -491 -98 -558 -228 -19 -36 -19 -62 0 -100 21 -40 112 -84 323 -153
l172 -58 -51 -56 c-29 -31 -63 -74 -77 -94 -13 -21 -26 -38 -28 -38 -15 0
-242 89 -295 116 -88 44 -155 118 -165 180 -3 25 -3 127 1 228 l7 183 102 18
c186 31 273 53 381 95 58 23 105 43 103 45 -2 2 -125 -12 -273 -31 -149 -18
-279 -34 -290 -34 -19 0 -20 8 -24 162 -2 89 -6 182 -10 207 l-6 45 -36 -61z
m-33 -645 c-7 -189 -23 -399 -32 -431 -15 -51 -305 -197 -437 -221 l-37 -7 31
51 c48 77 79 187 80 278 l0 77 123 88 c165 118 196 151 207 219 5 30 5 67 0
85 -8 28 -7 32 12 36 65 13 61 26 53 -175z m-658 -134 c-6 -69 6 -141 28 -165
26 -28 66 -32 128 -11 l57 19 -7 -31 c-20 -97 -96 -236 -162 -298 -38 -35 -48
-39 -75 -34 -18 4 -52 19 -76 34 -101 62 -122 186 -61 360 18 51 30 95 28 98
-7 6 -53 -101 -74 -171 -27 -89 -25 -216 4 -280 13 -27 34 -62 48 -76 l25 -26
-24 -7 c-79 -19 -214 47 -268 131 -36 58 -61 169 -57 258 3 66 4 70 28 73 57
7 168 49 302 113 78 38 147 69 152 69 4 0 6 -25 4 -56z m109 45 c28 -10 103
-76 103 -91 0 -14 -79 -48 -114 -48 -46 0 -76 37 -76 95 0 23 3 45 7 48 10 10
48 8 80 -4z m1394 -288 c110 -48 159 -79 192 -123 27 -37 47 -89 47 -123 l0
-23 -87 19 c-115 26 -383 96 -389 102 -12 12 117 187 137 187 5 0 50 -18 100
-39z m554 -175 c38 -16 65 -60 65 -106 0 -38 -9 -38 -47 3 -41 44 -63 78 -63
99 0 22 2 22 45 4z m724 -442 c25 -21 51 -74 51 -106 0 -19 -29 -5 -62 30 -36
38 -58 72 -58 91 0 20 38 11 69 -15z m-435 -95 c18 -22 26 -42 26 -70 l0 -40
-29 20 c-42 30 -81 79 -81 102 0 32 53 25 84 -12z m-34 -188 c21 -17 23 -22
12 -45 -7 -17 -20 -26 -34 -26 -33 0 -202 21 -207 26 -10 9 15 19 97 41 106
27 102 27 132 4z m298 -291 c23 -34 30 -104 13 -115 -15 -9 -73 83 -78 126 -5
38 -5 39 18 31 13 -5 34 -24 47 -42z"/>
<path d="M8322 10619 c-95 -58 -162 -118 -162 -144 0 -16 3 -16 28 7 15 14 68
53 118 86 52 35 94 70 97 81 3 12 4 21 3 21 -1 0 -39 -23 -84 -51z"/>
<path d="M7545 10608 c-69 -79 -125 -167 -125 -197 0 -24 2 -23 24 15 12 22
53 80 89 129 60 79 76 105 63 105 -3 0 -25 -24 -51 -52z"/>
<path d="M8745 11533 c-68 -68 -115 -137 -115 -171 0 -35 18 -62 41 -62 23 0
79 51 79 71 0 10 -3 10 -12 1 -7 -7 -25 -12 -40 -12 -24 0 -28 4 -28 26 0 27
48 101 95 144 25 23 51 60 42 60 -2 0 -30 -26 -62 -57z"/>
<path d="M9120 11569 c-34 -14 -70 -49 -70 -69 0 -10 9 -29 20 -43 l20 -25
-53 -35 c-75 -50 -110 -66 -227 -108 -113 -41 -101 -52 19 -19 87 25 158 59
227 110 36 27 55 35 62 28 15 -15 35 1 29 24 -3 11 5 40 18 65 19 34 22 50 14
64 -11 21 -22 23 -59 8z m26 -44 c3 -8 -1 -24 -9 -36 l-15 -21 -17 26 c-9 14
-14 30 -10 36 9 15 45 12 51 -5z"/>
<path d="M7268 11453 c-29 -65 -16 -142 24 -143 4 0 19 10 34 23 20 18 27 33
28 65 0 35 -5 47 -32 72 l-33 30 -21 -47z m72 -58 c0 -16 -30 -35 -54 -35 -16
0 -22 34 -10 64 5 14 9 14 35 0 16 -8 29 -21 29 -29z"/>
<path d="M9360 11461 c-14 -26 -15 -24 26 -72 39 -47 39 -62 3 -132 -24 -47
-24 -47 4 -47 14 0 40 18 67 46 69 72 120 106 136 93 8 -6 14 -19 14 -27 0
-14 4 -13 21 5 26 26 18 63 -14 63 -31 -1 -57 -17 -127 -82 -34 -32 -64 -58
-66 -58 -3 0 5 18 16 40 26 50 26 115 0 158 -23 37 -63 44 -80 13z"/>
<path d="M8140 11423 c-19 -8 -37 -17 -39 -19 -6 -6 41 -124 50 -124 7 0 76
29 88 37 2 2 -4 30 -14 63 -20 66 -26 69 -85 43z"/>
<path d="M5506 11335 c-3 -9 -6 -36 -6 -60 0 -48 -6 -55 -73 -80 -26 -10 -46
-21 -45 -26 2 -4 113 -96 247 -204 l244 -196 56 55 56 56 -236 236 c-183 183
-238 232 -243 219z"/>
<path d="M11040 11115 l-235 -235 56 -56 56 -55 244 196 c134 108 245 200 247
204 1 5 -19 16 -45 26 -67 25 -73 32 -73 84 0 25 -4 51 -8 58 -5 8 -85 -65
-242 -222z"/>
<path d="M9841 11254 c-62 -52 -82 -128 -37 -140 32 -8 63 10 86 49 25 40 25
49 1 87 l-18 31 -32 -27z m39 -79 c0 -15 -42 -28 -64 -19 -21 8 -20 16 6 49
l22 28 18 -23 c10 -12 18 -28 18 -35z"/>
<path d="M3494 11109 l74 -141 878 -480 c819 -447 879 -478 892 -461 35 47 83
146 75 152 -6 3 -367 241 -805 528 l-794 522 -150 11 c-82 5 -170 10 -197 10
l-47 0 74 -141z"/>
<path d="M4210 11245 c0 -2 24 -50 54 -105 l53 -101 583 -385 c426 -281 585
-382 591 -372 4 7 28 42 53 77 24 36 43 68 40 72 -2 4 -238 190 -524 413
l-520 406 -165 0 c-91 0 -165 -2 -165 -5z"/>
<path d="M11737 10851 c-280 -219 -515 -405 -523 -412 -11 -12 -7 -24 32 -79
25 -36 49 -71 53 -78 6 -10 164 90 591 372 l583 385 53 100 c30 55 54 103 54
106 0 3 -75 5 -167 4 l-168 -1 -508 -397z"/>
<path d="M13101 11238 l-124 -8 -795 -523 c-437 -287 -799 -525 -805 -528 -8
-6 40 -104 75 -152 13 -17 72 13 892 461 l879 480 73 141 74 141 -72 -1 c-40
-1 -129 -6 -197 -11z"/>
<path d="M4901 11228 c0 -7 15 -50 32 -95 l32 -82 349 -265 348 -264 47 56
c25 32 52 64 59 73 11 15 -25 52 -281 292 l-293 275 -120 6 c-65 4 -131 9
-146 12 -20 4 -28 1 -27 -8z"/>
<path d="M11731 11228 l-134 -10 -294 -275 c-256 -240 -292 -277 -281 -292 7
-9 34 -41 59 -73 l47 -56 348 264 349 265 32 82 c36 91 39 108 21 106 -7 -1
-73 -6 -147 -11z"/>
<path d="M9465 11025 c-77 -79 -112 -145 -99 -184 13 -37 56 -40 89 -7 33 33
33 49 1 34 -32 -14 -56 -4 -56 23 0 23 52 98 95 139 28 26 50 60 39 60 -4 0
-35 -29 -69 -65z"/>
<path d="M6550 11053 c-60 -39 -80 -66 -80 -104 0 -66 8 -72 46 -34 19 19 48
42 66 51 l31 16 -7 -43 c-4 -24 -16 -59 -27 -77 -10 -18 -19 -36 -19 -39 0
-13 35 25 62 66 30 48 37 107 18 155 -11 31 -52 35 -90 9z"/>
<path d="M9678 11053 c-16 -2 -28 -7 -28 -11 0 -4 55 -29 123 -56 193 -77 447
-191 640 -287 171 -85 207 -98 234 -81 14 9 -167 111 -312 177 -235 108 -583
257 -605 260 -14 1 -37 1 -52 -2z"/>
<path d="M6376 10868 c-24 -67 -84 -280 -100 -355 -5 -22 -3 -39 7 -53 13 -18
17 -10 47 107 18 71 47 169 64 218 26 71 31 97 24 123 -5 17 -10 32 -12 32 -2
0 -16 -33 -30 -72z"/>
<path d="M6726 10880 c27 -189 90 -291 154 -251 17 12 17 70 -1 102 -13 24
-13 24 -19 -11 -4 -26 -10 -36 -27 -38 -30 -4 -47 26 -77 137 -28 104 -40 129
-30 61z"/>
<path d="M9733 10797 c-88 -91 -124 -172 -91 -205 21 -21 55 -13 83 19 29 35
27 46 -5 29 -29 -15 -50 -6 -50 22 0 28 16 53 88 136 71 81 53 80 -25 -1z"/>
<path d="M10014 10677 l-52 -19 25 -61 c14 -34 26 -63 27 -65 5 -5 96 39 96
47 0 13 -32 106 -39 112 -3 3 -29 -3 -57 -14z"/>
<path d="M10193 10569 l-51 -20 25 -62 c14 -34 26 -63 27 -64 2 -2 88 36 94
42 5 4 -28 107 -37 117 -3 3 -29 -3 -58 -13z"/>
<path d="M6753 10569 c-139 -27 -213 -110 -213 -237 0 -96 59 -171 168 -212
45 -18 46 -18 20 -25 -57 -15 -123 26 -341 212 -54 45 -121 100 -150 121 -54
40 -188 122 -199 122 -4 0 3 -25 16 -55 18 -46 31 -60 81 -93 120 -77 506
-397 555 -459 29 -37 28 -107 -2 -127 -30 -21 -64 -20 -117 4 -84 38 -125 16
-123 -68 2 -103 70 -216 148 -244 l33 -12 -17 -30 c-28 -51 -23 -201 11 -307
33 -103 35 -157 6 -193 -16 -20 -29 -26 -62 -26 -36 0 -46 6 -88 49 -38 39
-55 70 -90 162 -48 124 -68 124 -24 0 60 -170 153 -271 248 -271 40 0 105 40
121 74 23 49 20 91 -14 202 -42 134 -46 170 -26 238 19 66 76 130 125 141 39
8 39 20 -2 69 l-33 38 -64 -33 c-73 -39 -131 -44 -173 -16 -23 15 -27 25 -27
63 0 83 32 103 113 69 84 -35 145 -10 167 66 17 57 -13 144 -72 206 l-30 31
38 -8 c55 -13 106 -2 165 34 130 78 189 279 122 409 l-27 52 -8 -70 c-9 -78
-30 -149 -54 -183 -41 -59 -146 -72 -273 -33 l-73 22 6 40 c11 69 55 140 133
217 41 39 73 72 71 71 -2 -1 -22 -5 -45 -10z"/>
<path d="M3902 10535 c-56 -7 -104 -14 -107 -16 -2 -3 26 -59 63 -126 l67
-122 625 -267 c344 -146 630 -268 636 -271 6 -2 28 35 49 82 32 72 36 88 24
95 -29 19 -1246 640 -1250 639 -2 -1 -50 -7 -107 -14z"/>
<path d="M12151 10230 c-343 -176 -626 -322 -629 -325 -9 -9 71 -176 82 -172
6 3 292 125 636 271 l625 267 67 122 c77 140 80 130 -47 141 -44 4 -87 9 -95
11 -8 3 -296 -139 -639 -315z"/>
<path d="M5970 10404 c0 -6 5 -37 11 -70 25 -145 68 -224 120 -224 36 0 50 28
38 78 -11 49 -29 65 -29 25 0 -17 -6 -36 -14 -42 -33 -28 -61 17 -95 152 -18
71 -31 106 -31 81z"/>
<path d="M10576 10398 c-17 -9 -12 -13 38 -28 86 -27 253 -112 362 -185 101
-67 109 -71 133 -56 22 14 -145 119 -326 207 -157 76 -174 81 -207 62z"/>
<path d="M8693 10277 c-103 -107 -128 -157 -99 -202 21 -33 41 -32 77 4 36 37
39 55 5 39 -14 -6 -32 -8 -40 -5 -36 14 -12 67 74 160 29 32 51 60 48 62 -2 2
-31 -24 -65 -58z"/>
<path d="M8509 10291 c-136 -51 -218 -100 -219 -132 0 -3 30 10 68 28 37 18
101 45 142 60 68 25 99 45 100 66 0 11 -8 9 -91 -22z"/>
<path d="M10256 10264 l-39 -27 35 -12 c42 -14 101 -49 118 -70 20 -24 -33
-38 -115 -32 l-70 6 45 -20 c90 -41 168 -35 230 18 39 33 38 51 -7 95 -76 73
-134 85 -197 42z"/>
<path d="M10735 10153 c-22 -9 -41 -17 -43 -18 -3 -3 40 -108 49 -118 4 -5 28
0 54 12 41 18 46 23 39 43 -33 105 -35 107 -99 81z"/>
<path d="M5721 10121 c-29 -29 -41 -84 -41 -186 0 -102 10 -147 43 -196 24
-37 67 -50 92 -29 19 16 35 74 28 100 -7 25 -23 26 -23 2 0 -26 -28 -62 -49
-62 -33 0 -61 44 -72 110 -11 72 -5 126 21 188 21 48 42 53 77 20 26 -25 30
-11 8 31 -22 44 -54 52 -84 22z"/>
<path d="M6225 10071 c-75 -45 -103 -113 -71 -170 l13 -23 22 36 c20 32 69 76
85 76 11 0 6 -68 -9 -110 -19 -55 -19 -58 5 -27 50 64 63 140 33 202 -19 40
-35 43 -78 16z"/>
<path d="M7043 9974 c-69 -144 -113 -252 -113 -275 0 -60 16 -42 60 68 26 65
62 149 79 188 19 41 31 81 29 99 -3 26 -10 15 -55 -80z"/>
<path d="M5831 10009 c-25 -72 -6 -119 49 -119 16 0 32 -5 35 -10 12 -20 -16
-191 -49 -300 -18 -61 -32 -110 -30 -110 8 0 63 120 78 170 9 30 20 101 23
158 4 76 9 102 20 102 19 0 16 31 -5 37 -9 2 -29 25 -42 51 -32 60 -63 68 -79
21z m63 -35 c11 -28 7 -34 -24 -34 -31 0 -39 17 -18 38 17 17 35 15 42 -4z"/>
<path d="M4192 9923 c-45 -20 -81 -40 -80 -44 2 -4 42 -52 89 -106 l85 -98
402 -109 c221 -60 404 -107 406 -105 11 11 64 169 58 173 -13 8 -865 326 -871
325 -3 0 -43 -17 -89 -36z"/>
<path d="M12085 9804 c-225 -85 -420 -158 -432 -164 l-22 -9 30 -83 c17 -46
32 -85 35 -87 2 -2 185 45 406 105 l402 109 85 98 c47 54 87 102 89 106 2 7
-165 83 -178 80 -3 0 -189 -70 -415 -155z"/>
<path d="M7398 9821 c-66 -67 -98 -107 -98 -122 0 -19 9 -13 52 37 29 32 73
79 99 104 42 41 68 80 52 80 -4 0 -51 -45 -105 -99z"/>
<path d="M10925 9888 c16 -18 57 -62 91 -98 34 -36 87 -96 119 -135 61 -74 79
-89 97 -83 23 8 -286 348 -317 348 -16 0 -14 -5 10 -32z"/>
<path d="M7497 9824 c-84 -79 -137 -142 -137 -165 0 -17 4 -15 27 13 14 18 60
67 101 109 87 90 94 122 9 43z"/>
<path d="M8225 9804 c-179 -27 -327 -74 -474 -149 -386 -197 -652 -548 -747
-985 -15 -66 -19 -127 -19 -275 0 -148 4 -209 19 -275 95 -436 361 -788 744
-984 120 -61 238 -103 372 -132 66 -15 127 -19 275 -19 148 0 209 4 275 19
439 95 786 359 984 744 61 120 103 238 132 372 15 66 19 127 19 275 0 148 -4
209 -19 275 -96 442 -368 795 -763 994 -199 99 -353 136 -593 141 -96 2 -188
1 -205 -1z m74 -318 c-13 -22 -46 -50 -92 -77 -40 -23 -114 -71 -166 -106 -51
-34 -95 -63 -97 -63 -1 0 2 13 7 29 8 23 43 51 147 119 150 97 203 130 214
131 4 1 -2 -14 -13 -33z m656 -10 c-20 -27 -44 -40 -118 -66 -145 -50 -462
-177 -576 -231 -57 -27 -106 -48 -108 -46 -2 2 14 22 34 44 40 43 140 91 393
191 122 48 380 141 393 141 4 1 -4 -14 -18 -33z m243 -194 c2 -13 -6 -39 -17
-58 -13 -22 -19 -44 -15 -59 6 -26 -11 -42 -30 -26 -9 7 -25 1 -62 -26 -94
-68 -236 -123 -314 -122 -28 0 -14 7 70 38 108 38 207 87 249 122 23 18 23 20
7 38 -27 30 -17 71 24 99 43 29 84 26 88 -6z m-1338 -126 l52 -49 -64 -63 -63
-64 -53 46 -53 46 -37 -43 c-20 -24 -47 -55 -58 -68 l-22 -25 -56 42 c-31 24
-56 45 -56 49 0 7 102 143 108 143 2 0 29 -21 60 -46 l57 -47 60 67 c33 36 63
65 67 63 3 -1 29 -24 58 -51z m557 -108 c-2 -48 0 -53 20 -56 25 -4 38 26 29
63 -4 14 0 27 9 35 13 11 15 7 15 -23 0 -46 17 -90 33 -84 7 2 12 23 12 55 0
63 19 74 23 13 4 -59 -14 -101 -44 -101 -12 0 -26 5 -30 11 -4 8 -9 8 -17 0
-18 -18 -55 -12 -71 11 -20 29 -10 128 13 128 6 0 9 -23 8 -52z m-208 -203
c28 -49 58 -109 68 -132 15 -35 22 -41 38 -37 38 11 180 83 305 153 131 75
180 92 205 71 41 -34 -14 -131 -157 -279 -101 -103 -108 -109 -108 -82 0 36
58 112 123 161 47 35 62 70 30 70 -13 0 -316 -196 -355 -229 -5 -4 3 -50 16
-102 14 -53 29 -147 35 -209 6 -62 12 -114 14 -116 1 -2 11 27 21 63 15 52 30
77 74 125 66 70 191 155 331 223 55 28 101 55 101 60 0 6 -12 27 -26 46 -31
41 -29 91 6 163 29 60 66 80 134 72 64 -7 198 -72 255 -122 l43 -39 -30 -65
-29 -65 -117 -44 c-103 -39 -116 -46 -116 -67 0 -27 -15 -32 -24 -9 -9 24 -26
19 -149 -44 -123 -62 -241 -140 -251 -166 -5 -14 2 -15 52 -11 31 3 215 8 407
12 193 3 393 9 445 13 52 4 97 6 99 4 4 -3 -56 -139 -69 -156 -3 -4 -69 -18
-146 -32 -178 -31 -286 -56 -410 -96 -167 -53 -344 -147 -344 -183 0 -29 83
-86 163 -111 43 -14 85 -25 93 -25 16 0 16 -1 -16 -95 l-17 -50 -54 3 c-249
14 -425 173 -488 442 -11 47 -21 99 -23 115 -3 28 -5 26 -22 -23 -87 -253
-454 -512 -726 -513 -136 -1 -209 71 -209 206 -1 61 20 161 48 235 26 69 83
169 88 154 2 -6 -14 -55 -36 -110 -90 -223 -57 -314 112 -314 171 0 395 113
582 294 45 45 96 103 113 129 l30 48 -14 62 c-8 34 -29 106 -46 160 l-32 97
-46 0 c-59 0 -155 25 -198 52 -19 12 -54 51 -78 88 -58 90 -69 98 -102 79 -46
-25 -88 -102 -133 -241 -50 -156 -80 -198 -144 -198 -51 0 -107 55 -130 130
-18 58 -33 279 -21 325 14 54 24 20 28 -92 7 -164 39 -233 111 -233 54 0 80
37 142 200 57 150 115 221 180 223 33 1 43 -6 108 -75 61 -65 80 -79 126 -92
53 -15 91 -20 91 -12 0 2 -18 42 -39 89 l-39 84 15 84 16 83 23 -29 c13 -16
46 -70 73 -120z m-84 -715 c-33 -33 -64 -60 -69 -60 -5 0 -28 18 -52 40 -24
22 -47 40 -52 40 -4 0 -32 -29 -62 -65 -32 -39 -58 -61 -65 -57 -52 32 -105
78 -101 88 8 20 99 134 107 134 4 0 32 -20 62 -45 l55 -44 62 70 63 71 56 -56
56 -56 -60 -60z m201 -517 c-56 -112 -59 -125 -42 -149 14 -19 15 -19 46 5
l32 23 -7 -23 c-10 -34 -39 -73 -58 -77 -9 -2 -26 7 -37 18 -19 19 -21 29 -16
64 4 22 17 64 30 91 23 49 81 135 91 135 3 0 -14 -39 -39 -87z m-105 49 c-16
-29 -30 -38 -130 -76 -52 -20 -123 -52 -158 -70 l-64 -34 20 31 c23 38 111 88
236 133 106 39 109 39 96 16z"/>
<path d="M9110 9257 c0 -7 7 -22 15 -33 13 -16 16 -17 25 -4 18 28 12 50 -15
50 -14 0 -25 -6 -25 -13z"/>
<path d="M8976 8717 c-19 -14 -18 -16 14 -61 18 -25 35 -46 36 -46 2 0 35 12
75 27 l72 26 -55 28 c-71 36 -117 44 -142 26z"/>
<path d="M8533 8093 l-111 -4 14 -60 c22 -93 63 -168 129 -234 l60 -60 6 47
c4 25 15 63 25 84 38 81 154 170 276 214 l53 19 -170 -2 c-93 -1 -220 -3 -282
-4z"/>
<path d="M6113 9664 c-9 -24 10 -56 82 -138 60 -70 63 -74 28 -54 -50 30 -131
31 -170 2 -35 -27 -41 -59 -13 -74 27 -14 54 -5 74 25 22 34 77 34 131 0 49
-30 55 -30 55 -6 0 10 -34 56 -75 102 -77 85 -88 111 -47 117 23 3 23 4 6 23
-21 23 -62 25 -71 3z"/>
<path d="M4379 9482 l29 -58 -34 -47 c-19 -26 -34 -50 -34 -55 0 -7 681 -104
688 -98 4 5 41 141 38 143 -2 3 -703 173 -711 173 -3 0 8 -26 24 -58z"/>
<path d="M12071 9454 c-190 -47 -346 -86 -347 -87 -3 -3 34 -138 38 -143 7 -6
688 91 688 98 0 5 -15 29 -34 55 l-34 47 29 58 c19 37 25 58 17 57 -7 0 -168
-39 -357 -85z"/>
<path d="M10945 9505 c-5 -2 -44 -11 -85 -20 -142 -32 -220 -84 -220 -146 0
-50 65 -65 130 -29 l35 19 -31 1 c-44 0 -68 21 -61 52 8 32 41 48 182 88 61
18 112 34 114 36 5 5 -49 4 -64 -1z"/>
<path d="M6900 9423 c-8 -3 -30 -12 -48 -19 l-32 -13 21 -53 c11 -29 24 -57
29 -62 9 -9 100 24 100 36 0 16 -42 118 -48 117 -4 0 -14 -3 -22 -6z"/>
<path d="M6810 9232 c-25 -10 -45 -22 -45 -27 0 -25 40 -115 52 -115 7 0 29 8
50 17 21 10 39 18 40 18 6 3 -39 125 -45 124 -4 0 -27 -8 -52 -17z"/>
<path d="M4028 9169 l-127 -71 74 -58 74 -59 403 -30 c222 -17 428 -33 459
-36 l56 -6 16 88 c9 48 14 89 12 92 -5 4 -811 151 -830 151 -5 0 -67 -32 -137
-71z"/>
<path d="M12198 9166 c-219 -40 -400 -74 -402 -77 -3 -3 2 -44 11 -92 l16 -88
56 6 c31 3 237 19 459 36 l403 30 75 59 74 59 -129 70 c-71 39 -137 71 -147
70 -11 -1 -198 -33 -416 -73z"/>
<path d="M3451 8821 l-134 -89 74 -42 c41 -23 85 -49 98 -58 22 -13 122 -16
730 -22 389 -4 709 -4 712 -1 4 3 10 47 14 96 l7 90 -664 58 c-364 32 -672 57
-683 57 -11 -1 -80 -41 -154 -89z"/>
<path d="M12467 8852 l-629 -56 7 -91 c4 -49 10 -93 14 -96 3 -3 324 -3 712 1
607 6 709 9 730 22 13 9 57 35 98 58 l74 42 -137 89 c-129 85 -139 89 -188 88
-29 -1 -336 -27 -681 -57z"/>
<path d="M2823 8407 c-89 -51 -163 -94 -163 -97 0 -3 60 -40 134 -83 l134 -77
943 70 c519 38 970 73 1002 76 l57 6 0 92 0 93 -562 6 c-310 4 -747 7 -973 7
l-410 -1 -162 -92z"/>
<path d="M12243 8493 l-383 -3 0 -94 0 -94 58 -6 c31 -3 482 -38 1000 -76
l944 -71 134 77 c74 43 134 80 134 83 0 3 -74 48 -165 99 l-164 92 -588 -2
c-324 -2 -760 -4 -970 -5z"/>
<path d="M4197 8110 l-657 -68 -90 -73 c-78 -64 -87 -74 -72 -84 9 -6 65 -37
125 -69 l107 -57 667 116 c367 64 669 118 671 120 2 2 0 44 -3 94 l-8 91 -41
-1 c-22 -1 -337 -32 -699 -69z"/>
<path d="M11845 8089 c-3 -50 -5 -93 -3 -95 3 -2 304 -56 671 -120 l667 -115
107 57 c60 32 116 63 125 69 15 10 6 20 -72 84 l-90 73 -677 69 c-373 38 -688
69 -699 69 -20 0 -22 -7 -29 -91z"/>
<path d="M4517 7790 c-240 -53 -439 -99 -441 -101 -2 -2 -26 -38 -54 -80 l-51
-77 123 -36 c68 -20 131 -36 140 -36 19 0 747 230 758 239 8 7 -22 192 -31
190 -3 -1 -203 -45 -444 -99z"/>
<path d="M11807 7798 c-9 -51 -13 -96 -9 -99 11 -9 739 -239 758 -239 9 0 72
16 140 36 l123 36 -52 79 c-29 43 -59 81 -67 84 -8 2 -202 45 -430 95 -228 50
-422 93 -431 95 -12 4 -18 -12 -32 -87z"/>
<path d="M10139 7367 c-354 -261 -356 -262 -465 -300 l-109 -38 -490 -364
c-269 -200 -511 -383 -537 -405 -103 -89 -151 -255 -113 -385 19 -66 63 -159
91 -192 l19 -22 665 -10 c366 -6 709 -13 762 -15 l97 -4 346 418 c190 230 345
426 345 436 0 10 -7 25 -16 35 -68 75 -53 265 30 388 31 45 33 53 20 66 -9 8
-33 15 -56 15 l-41 0 23 24 c30 32 21 56 -22 56 l-32 0 47 48 c35 35 46 53 41
66 -7 18 -20 18 -104 -1 -23 -5 -21 -1 18 39 36 38 40 46 30 61 -12 16 -17 16
-78 -3 -36 -11 -72 -20 -80 -20 -8 0 10 25 40 55 43 43 52 57 42 67 -10 10
-39 -1 -137 -50 -69 -34 -128 -62 -132 -62 -4 0 39 47 96 104 93 93 114 126
80 126 -5 0 -58 -33 -117 -73 -59 -41 -114 -77 -122 -82 -8 -4 43 51 113 122
95 95 126 134 121 146 -3 9 -9 17 -13 17 -3 -1 -166 -119 -362 -263z m-124
-225 c-252 -251 -314 -306 -470 -423 -349 -261 -543 -363 -764 -400 -63 -10
-116 -17 -118 -16 -1 2 204 157 457 345 l459 343 113 41 c108 39 124 49 357
220 133 98 246 178 250 178 3 0 -124 -130 -284 -288z m80 -62 l-260 -261 -277
-180 c-235 -152 -388 -241 -388 -225 0 2 46 30 101 62 175 100 422 296 655
522 156 150 239 222 315 273 57 38 106 69 109 69 3 0 -112 -117 -255 -260z
m122 -67 l-287 -288 -123 -52 c-67 -28 -160 -68 -207 -88 -47 -20 -80 -32 -75
-27 6 5 75 48 155 96 141 86 150 93 370 311 224 222 226 224 335 279 61 30
112 55 115 55 3 1 -125 -128 -283 -286z m98 -73 l-300 -300 -205 -66 c-113
-36 -239 -76 -279 -90 -41 -13 -71 -20 -65 -15 5 4 116 55 248 112 l238 104
263 258 c247 241 267 259 322 276 32 11 62 19 68 20 5 1 -125 -134 -290 -299z
m355 202 c0 -4 -143 -150 -317 -324 l-318 -317 -348 -71 c-192 -40 -350 -70
-353 -68 -2 3 150 53 339 113 l342 109 275 272 c251 249 279 273 320 282 60
13 60 13 60 4z m-10 -118 c0 -4 -328 -348 -576 -603 -42 -44 -43 -44 -146 -58
-422 -55 -664 -84 -682 -81 -11 2 163 40 388 85 l409 83 279 284 c158 162 288
287 301 289 12 2 23 5 25 6 1 0 2 -2 2 -5z m68 -81 c-1 -5 -154 -158 -339
-340 l-336 -333 -199 1 c-227 1 -220 9 26 33 l165 16 309 315 c287 293 311
315 343 315 19 0 33 -3 31 -7z m-65 -170 c-21 -81 -13 -174 20 -240 l27 -52
-328 -396 c-363 -440 -332 -414 -373 -306 -29 79 -36 190 -15 271 35 134 40
141 371 471 171 170 311 309 312 309 0 0 -6 -26 -14 -57z m-897 -539 l251 -7
-25 -60 c-13 -32 -31 -94 -39 -136 -19 -93 -9 -194 30 -291 15 -35 25 -65 24
-65 -1 -1 -297 4 -657 11 -360 7 -688 13 -727 13 l-73 1 -30 48 c-41 64 -70
162 -70 233 0 75 26 144 82 216 l42 56 471 -7 c258 -3 583 -9 721 -12z"/>
<path d="M4686 7479 c-186 -43 -340 -80 -342 -82 -3 -2 16 -21 42 -42 l46 -38
-7 -65 c-6 -52 -4 -64 7 -60 7 2 150 51 318 108 168 57 309 106 313 110 8 7
-20 129 -32 141 -3 3 -158 -29 -345 -72z"/>
<path d="M6242 7548 c-10 -10 6 -30 70 -96 89 -90 85 -91 -55 -8 -85 51 -90
52 -106 33 -8 -10 -1 -23 30 -53 22 -21 49 -51 60 -66 l19 -26 -72 28 c-61 24
-75 26 -87 15 -12 -12 -7 -21 30 -66 31 -37 38 -50 24 -46 -11 3 -44 9 -72 12
-44 6 -54 4 -59 -10 -4 -9 2 -25 13 -38 44 -50 45 -55 18 -49 -37 7 -42 -21
-10 -62 l26 -35 -38 -3 c-46 -4 -46 -7 -7 -128 20 -64 27 -108 28 -175 1 -82
-2 -94 -27 -138 -19 -32 -25 -52 -19 -60 5 -7 145 -199 312 -427 166 -228 310
-423 320 -433 16 -18 60 -20 726 -33 390 -7 730 -13 757 -14 42 0 53 5 92 41
25 24 59 70 77 106 28 56 32 75 31 141 0 48 -8 101 -21 140 -25 78 -100 210
-122 217 -10 3 -238 178 -508 388 l-490 382 -228 75 -228 75 -229 163 c-125
89 -231 162 -236 162 -4 0 -12 -5 -19 -12z m170 -238 c15 -9 134 -118 264
-243 192 -184 271 -252 421 -362 102 -74 181 -135 177 -134 -5 0 -109 50 -230
112 l-222 112 -242 260 c-134 143 -259 278 -279 299 l-36 39 60 -33 c33 -19
72 -41 87 -50z m163 -16 l134 -95 230 -77 230 -77 461 -359 c253 -198 458
-361 456 -364 -3 -2 -44 1 -93 8 -68 9 -142 31 -326 101 l-239 89 -241 171
c-133 95 -264 192 -290 218 -86 82 -470 481 -463 481 4 0 67 -43 141 -96z
m-330 3 c56 -22 77 -41 315 -290 l255 -267 194 -95 c107 -53 217 -105 245
-117 125 -52 49 -31 -216 59 l-286 98 -274 301 c-281 309 -303 334 -296 334 2
0 31 -10 63 -23z m-83 -73 c34 -6 65 -36 298 -289 151 -165 272 -287 288 -293
174 -63 619 -215 694 -237 54 -16 96 -31 94 -33 -2 -2 -189 42 -414 98 l-410
101 -248 262 c-137 144 -278 292 -313 330 -68 71 -67 74 11 61z m4 -138 c18
-17 143 -148 279 -291 l247 -260 72 -23 c39 -12 197 -54 351 -92 154 -39 289
-75 300 -80 l20 -10 -20 4 c-11 3 -166 21 -345 42 -179 20 -331 42 -339 48
-11 9 -541 589 -625 685 l-21 23 25 -7 c14 -4 39 -21 56 -39z m239 -376 c169
-181 307 -330 308 -331 1 0 61 -9 132 -19 l130 -18 -151 -1 -151 -1 -274 307
c-151 170 -291 327 -313 350 -38 42 -38 43 -13 43 20 0 86 -66 332 -330z m-73
-47 c340 -384 377 -429 406 -493 33 -72 41 -184 18 -263 -17 -57 -73 -142 -94
-142 -9 0 -563 744 -606 813 -4 7 1 31 13 55 11 23 23 63 26 88 6 42 -5 146
-21 207 -4 12 -4 22 -2 22 3 0 120 -129 260 -287z m1363 -379 c231 -3 434 -7
450 -8 26 -3 35 -13 72 -82 99 -184 90 -336 -24 -447 l-40 -38 -699 11 c-384
6 -709 13 -721 16 -21 4 -21 5 13 62 87 144 85 311 -8 450 -15 24 -28 46 -28
49 0 3 127 3 283 -1 155 -3 471 -9 702 -12z"/>
<path d="M11755 7547 c-22 -70 -35 -131 -28 -137 4 -4 145 -53 313 -110 168
-57 311 -105 318 -108 11 -4 13 8 7 60 l-7 65 47 39 c41 33 45 39 29 46 -11 4
-161 39 -334 78 -173 39 -321 73 -328 75 -7 3 -15 -1 -17 -8z"/>
<path d="M4711 7179 c-200 -54 -367 -102 -371 -106 -4 -4 -44 -58 -89 -120
l-81 -112 38 -10 c20 -5 64 -15 97 -21 l60 -12 395 151 c217 83 400 153 407
155 7 3 1 32 -20 90 -26 70 -36 86 -52 85 -11 0 -184 -45 -384 -100z"/>
<path d="M11643 7194 c-21 -58 -27 -87 -20 -90 7 -2 190 -72 407 -155 l395
-151 60 12 c33 6 77 16 97 21 l38 10 -81 112 c-45 62 -85 116 -89 120 -7 8
-739 207 -762 207 -7 0 -27 -39 -45 -86z"/>
<path d="M4595 6772 l-620 -227 -87 -139 c-49 -77 -87 -141 -85 -142 2 -2 52
-8 113 -14 l110 -10 634 291 c349 159 636 292 639 294 5 5 -72 175 -79 175 -3
-1 -284 -103 -625 -228z"/>
<path d="M11526 6915 c-21 -47 -37 -87 -34 -90 2 -2 289 -135 638 -295 l634
-290 110 10 c61 6 111 12 113 14 2 1 -36 65 -85 142 l-87 139 -620 227 c-341
125 -622 228 -625 228 -3 0 -23 -38 -44 -85z"/>
<path d="M4469 6316 l-866 -401 -112 -156 c-61 -86 -111 -159 -111 -161 0 -3
71 -10 158 -17 l157 -13 869 490 c477 270 873 495 878 500 13 13 -72 162 -92
161 -8 -1 -405 -182 -881 -403z"/>
<path d="M11382 6644 c-36 -63 -41 -79 -30 -89 7 -7 402 -231 878 -500 l865
-487 158 13 c86 7 157 14 157 17 0 2 -50 75 -111 161 l-112 156 -871 403
c-479 221 -875 402 -881 402 -5 0 -30 -34 -53 -76z"/>
<path d="M4900 6096 l-605 -364 -51 -103 c-28 -57 -51 -105 -49 -107 1 -1 64
-6 141 -10 l139 -9 577 404 577 404 -52 74 c-29 41 -56 74 -62 74 -5 0 -282
-163 -615 -363z"/>
<path d="M11213 6385 l-52 -74 577 -404 577 -404 139 9 c77 4 140 9 141 10 1
2 -20 49 -47 105 l-49 103 -609 365 c-334 201 -612 365 -617 365 -4 -1 -31
-34 -60 -75z"/>
<path d="M5314 5940 l-379 -291 -11 -52 c-6 -29 -14 -74 -17 -100 -6 -43 -5
-48 11 -43 9 3 70 13 135 22 l118 17 302 280 c166 153 311 287 321 297 19 18
18 20 -34 82 -30 35 -57 67 -60 71 -4 4 -177 -123 -386 -283z"/>
<path d="M11036 6159 c-57 -69 -58 -72 -40 -89 11 -10 155 -144 322 -298 l302
-279 118 -18 c64 -9 125 -19 134 -21 16 -5 17 0 11 43 -3 26 -11 71 -17 100
l-11 52 -379 290 c-208 160 -379 291 -380 291 0 0 -27 -32 -60 -71z"/>
<path d="M5611 5778 c-291 -257 -275 -234 -170 -252 34 -6 37 -10 54 -66 10
-34 21 -59 25 -58 4 2 111 116 238 253 l231 250 -52 53 c-28 28 -54 52 -57 52
-3 0 -124 -105 -269 -232z"/>
<path d="M10853 5958 l-52 -53 231 -250 c127 -137 234 -251 238 -253 4 -1 15
24 25 58 17 56 20 60 54 66 105 18 121 -5 -170 252 -145 127 -266 232 -269
232 -3 0 -29 -24 -57 -52z"/>
<path d="M5774 5529 c-153 -166 -282 -307 -285 -313 -4 -6 -10 -75 -14 -153
l-7 -143 90 33 91 32 275 365 276 365 -63 57 c-34 31 -67 57 -73 58 -6 0 -136
-136 -290 -301z"/>
<path d="M10653 5772 l-63 -57 275 -365 276 -365 91 -32 91 -33 -8 143 c-4 78
-10 147 -13 153 -17 28 -567 614 -576 614 -6 -1 -39 -27 -73 -58z"/>
<path d="M5873 5104 l-413 -535 0 -170 0 -171 103 55 102 55 388 592 c213 325
387 595 387 599 0 8 -120 98 -141 105 -9 3 -158 -182 -426 -530z"/>
<path d="M10422 5588 c-40 -28 -72 -55 -72 -59 0 -4 174 -274 388 -599 l387
-592 103 -55 102 -55 0 171 0 170 -412 535 c-227 294 -416 535 -419 536 -3 0
-38 -23 -77 -52z"/>
<path d="M6517 5433 c-13 -21 -253 -389 -532 -818 l-507 -780 -11 -188 c-5
-103 -8 -190 -5 -193 3 -3 66 25 140 62 l134 67 484 894 c265 491 481 895 479
897 -2 2 -27 18 -56 34 -29 17 -63 38 -77 47 -24 16 -25 16 -49 -22z"/>
<path d="M10180 5429 c-36 -22 -71 -44 -79 -49 -11 -6 89 -199 469 -902 l484
-895 133 -67 c73 -36 136 -66 139 -66 8 0 -6 315 -16 362 -5 24 -199 333 -525
835 -285 439 -523 803 -529 810 -8 9 -27 2 -76 -28z"/>
<path d="M6482 4680 l-322 -637 11 -104 c6 -57 15 -108 19 -112 4 -5 61 21
127 57 l119 66 263 625 c144 343 265 632 267 642 4 14 -13 27 -78 59 l-84 42
-322 -638z"/>
<path d="M9902 5276 c-66 -33 -82 -45 -78 -59 2 -10 123 -299 267 -643 l263
-624 119 -66 c66 -36 123 -62 127 -57 4 4 13 54 19 111 l11 103 -164 327 c-91
180 -236 467 -323 638 l-158 311 -83 -41z"/>
<path d="M7065 5178 c-3 -7 -75 -202 -160 -433 -85 -231 -155 -425 -155 -431
0 -15 59 -156 70 -168 5 -5 53 30 108 78 l100 87 26 97 c15 53 64 237 110 407
l83 310 -71 28 c-101 39 -106 40 -111 25z"/>
<path d="M9624 5157 l-81 -32 102 -380 c56 -209 105 -392 108 -406 8 -30 204
-206 217 -193 11 12 70 153 70 168 0 21 -317 870 -326 872 -5 2 -45 -12 -90
-29z"/>
<path d="M7311 4774 c-51 -163 -90 -298 -87 -301 2 -3 30 1 62 7 48 10 59 10
68 -2 28 -37 76 -92 76 -87 0 4 27 141 60 305 34 165 62 307 63 318 2 15 -11
22 -63 37 -36 10 -70 18 -76 19 -6 0 -52 -133 -103 -296z"/>
<path d="M9295 5050 c-48 -14 -60 -21 -58 -36 1 -10 29 -153 63 -318 33 -164
60 -301 60 -305 0 -5 48 50 76 87 9 12 20 12 68 2 32 -6 60 -10 62 -7 3 3 -36
138 -87 301 -71 229 -96 296 -108 295 -9 -1 -43 -9 -76 -19z"/>
<path d="M7657 5003 c-2 -4 -35 -184 -72 -399 l-68 -392 53 -118 c29 -66 54
-121 56 -123 3 -4 42 27 108 87 l40 35 32 396 c18 218 33 416 34 442 l0 45
-77 13 c-42 7 -82 15 -89 18 -6 2 -14 1 -17 -4z"/>
<path d="M9033 4991 l-83 -15 0 -46 c1 -25 16 -223 34 -441 l32 -396 40 -35
c66 -60 105 -91 108 -87 2 2 27 57 56 123 l53 118 -69 396 c-38 217 -73 396
-79 397 -5 1 -47 -5 -92 -14z"/>
<path d="M7965 4945 c-2 -5 -36 -311 -76 -680 l-72 -670 74 -117 c41 -65 76
-118 79 -118 3 0 34 42 70 94 l66 93 22 649 c13 357 25 670 28 695 l5 46 -96
9 c-66 6 -98 6 -100 -1z"/>
<path d="M8724 4947 l-91 -10 4 -106 c3 -58 15 -372 27 -696 l21 -590 65 -93
c36 -50 67 -92 70 -92 3 0 38 53 79 118 l74 117 -73 675 c-40 371 -76 677 -79
680 -3 3 -47 2 -97 -3z"/>
<path d="M8280 4885 c0 -68 -48 -1657 -55 -1826 l-6 -146 86 -116 c48 -64 88
-117 90 -117 2 0 42 53 90 117 l87 117 -7 150 c-7 169 -55 1762 -55 1826 l0
40 -115 0 -115 0 0 -45z"/>
<path d="M2886 13750 c-48 -49 -86 -94 -84 -99 6 -18 891 -856 904 -856 11 0
174 167 174 178 0 4 -740 713 -876 839 l-30 28 -88 -90z"/>
<path d="M2557 13280 c-165 -42 -348 -226 -407 -409 -31 -98 -26 -222 14 -299
36 -70 97 -129 174 -165 55 -26 71 -29 136 -25 101 5 187 49 346 179 119 97
203 149 243 149 36 0 87 -30 107 -62 61 -101 -22 -278 -164 -348 -65 -32 -115
-37 -167 -16 -12 5 -34 -15 -86 -81 -38 -48 -73 -94 -77 -101 -5 -8 11 -21 54
-41 165 -78 332 -31 493 139 146 154 203 282 195 438 -5 104 -32 164 -104 235
-72 72 -142 102 -235 102 -66 0 -83 -4 -150 -37 -40 -20 -114 -71 -164 -112
-142 -118 -216 -167 -265 -173 -82 -11 -140 44 -140 134 1 90 74 197 164 239
59 28 93 30 141 10 l35 -15 75 94 c41 52 75 97 75 100 0 3 -29 19 -63 36 -71
33 -166 45 -230 29z"/>
<path d="M14050 12749 c-267 -171 -504 -323 -527 -337 l-42 -27 146 -229 c158
-247 224 -328 318 -388 92 -60 175 -81 298 -76 181 8 344 86 499 239 106 104
151 189 170 314 14 98 -4 200 -52 304 -30 64 -310 511 -320 511 -3 0 -223
-140 -490 -311z m515 -120 c86 -134 108 -196 103 -283 -10 -147 -114 -269
-306 -359 -54 -25 -83 -32 -153 -35 -103 -5 -151 12 -225 80 -41 37 -174 226
-174 246 0 9 671 440 686 441 5 1 36 -40 69 -90z"/>
<path d="M1825 12177 c-95 -32 -159 -86 -229 -195 -68 -107 -261 -492 -250
-501 15 -14 1090 -561 1103 -561 6 0 35 49 66 109 l54 109 -23 15 c-12 8 -105
57 -207 107 -101 51 -186 94 -188 96 -6 6 47 117 82 171 31 51 90 82 152 83
22 0 120 -12 218 -26 98 -15 179 -25 181 -23 11 14 127 241 125 244 -10 8
-415 55 -481 55 -62 0 -85 -5 -130 -28 l-55 -28 -1 67 c0 91 -30 156 -98 218
-88 81 -226 118 -319 88z m160 -285 c115 -63 124 -145 34 -324 -29 -60 -57
-108 -61 -108 -10 0 -171 80 -255 127 l-62 34 49 98 c26 54 61 113 76 131 64
75 134 89 219 42z"/>
<path d="M14740 11508 c-355 -33 -647 -61 -649 -64 -3 -2 91 -221 103 -241 1
0 72 8 160 18 87 11 159 19 161 17 7 -10 175 -390 175 -397 0 -5 -46 -51 -102
-102 -57 -50 -109 -98 -117 -105 -11 -10 -5 -31 39 -131 30 -65 56 -121 59
-125 5 -5 693 638 959 896 10 10 0 39 -51 152 -36 78 -70 140 -78 140 -8 1
-304 -25 -659 -58z m490 -202 c-88 -86 -376 -334 -381 -328 -13 14 -130 285
-125 289 6 6 430 60 486 62 l45 1 -25 -24z"/>
<path d="M1145 11018 c-3 -7 -54 -186 -113 -398 -106 -375 -109 -385 -88 -392
52 -17 1189 -338 1191 -336 5 7 217 768 218 783 2 14 -18 23 -97 46 -55 16
-101 28 -102 26 -1 -1 -36 -123 -79 -272 -42 -148 -77 -271 -78 -272 -6 -6
-302 85 -302 93 0 5 31 120 69 256 38 137 67 250 64 253 -7 7 -179 57 -184 53
-2 -3 -104 -357 -133 -465 -7 -27 -18 -43 -27 -43 -14 0 -262 68 -275 76 -5 3
28 127 128 480 l21 71 -94 27 c-107 30 -113 30 -119 14z"/>
<path d="M15270 10359 c-300 -54 -575 -103 -611 -109 l-65 -11 22 -126 c13
-69 24 -127 26 -129 2 -2 118 17 257 43 139 25 256 41 261 37 9 -10 104 -543
98 -549 -2 -2 -118 -25 -258 -50 -140 -25 -255 -47 -257 -48 -1 -2 8 -59 20
-127 l23 -125 29 3 c32 4 1196 211 1206 215 5 2 -36 246 -43 253 -2 2 -114
-17 -248 -41 -135 -24 -248 -41 -251 -37 -13 13 -102 543 -93 551 5 4 117 26
249 50 131 23 240 43 242 45 7 7 -43 250 -52 252 -6 1 -255 -42 -555 -97z"/>
<path d="M830 9919 c-1 -2 -9 -65 -18 -140 l-18 -136 469 -204 c258 -112 470
-206 472 -209 2 -3 -222 -41 -498 -85 -276 -43 -506 -81 -510 -85 -6 -5 -48
-281 -43 -287 0 -1 294 57 652 129 l651 131 19 157 20 158 -581 280 c-582 282
-615 297 -615 291z"/>
<path d="M15495 8964 c-236 -6 -488 -12 -559 -13 l-129 -1 7 -197 c3 -109 9
-293 12 -409 l6 -212 107 5 c58 3 106 6 107 7 0 0 -2 123 -6 271 -4 149 -7
271 -5 273 1 1 235 8 519 16 284 7 518 15 519 17 1 2 1 61 -1 132 l-3 127 -72
-2 c-40 0 -265 -7 -502 -14z"/>
<path d="M1280 8454 c-239 -6 -465 -13 -502 -13 l-68 -1 0 -130 0 -130 68 0
c37 0 306 7 597 15 292 8 545 15 563 15 l32 0 0 130 0 130 -127 -2 c-71 0
-324 -7 -563 -14z"/>
<path d="M14829 8037 c-1 -1 -9 -60 -18 -131 l-17 -129 134 -63 c73 -35 138
-64 143 -64 5 0 9 -10 9 -22 0 -27 -50 -421 -54 -425 -2 -2 -70 -15 -152 -30
-82 -14 -152 -29 -156 -32 -7 -7 -41 -262 -35 -268 5 -4 1289 266 1296 273 4
4 40 260 41 291 0 7 -105 65 -232 129 -300 150 -958 473 -959 471z m695 -591
c130 -60 234 -112 230 -115 -6 -6 -517 -101 -521 -97 -2 1 6 72 17 157 11 85
20 158 20 162 0 11 -23 21 254 -107z"/>
<path d="M1335 7917 c-341 -43 -621 -80 -621 -81 -2 -2 28 -241 31 -244 1 -2
181 20 400 48 219 28 402 49 407 48 5 -2 -157 -158 -361 -347 -204 -189 -371
-349 -371 -355 1 -29 27 -197 32 -201 4 -4 1171 139 1223 150 21 4 21 6 6 125
-14 119 -14 120 -40 120 -24 0 -705 -84 -763 -95 -16 -2 -28 -1 -28 4 0 4 166
162 370 350 204 188 370 345 370 349 -1 21 -29 204 -32 206 -1 1 -282 -33
-623 -77z"/>
<path d="M14596 6634 c-28 -84 -35 -118 -26 -124 6 -4 182 -64 391 -135 209
-70 378 -130 375 -132 -3 -3 -222 -71 -488 -152 l-483 -146 -35 -102 c-19 -56
-32 -104 -30 -106 7 -5 1173 -397 1182 -397 8 0 84 228 78 233 -3 2 -177 62
-387 133 -210 71 -379 132 -375 136 4 3 221 71 482 151 l475 145 36 104 37
104 -587 198 c-322 110 -591 201 -596 203 -6 2 -28 -49 -49 -113z"/>
<path d="M1815 6605 c-54 -12 -822 -269 -831 -278 -2 -2 15 -58 37 -126 34
-101 44 -121 58 -116 9 4 189 65 400 136 406 136 450 146 525 115 111 -46 189
-213 156 -334 -15 -58 -81 -129 -145 -157 -27 -12 -215 -77 -416 -145 l-367
-123 33 -96 c18 -53 38 -108 44 -123 l10 -28 403 136 c222 75 426 148 453 163
192 101 270 339 194 586 -66 218 -206 360 -388 395 -67 12 -91 12 -166 -5z"/>
<path d="M13999 4821 c-30 -41 -763 -914 -878 -1046 -594 -677 -1037 -1054
-1526 -1296 -284 -140 -553 -220 -844 -250 -146 -15 -461 -7 -603 16 -59 10
-114 15 -123 12 -8 -4 -31 -40 -51 -82 -20 -41 -44 -80 -54 -85 -17 -9 -13
-20 49 -127 37 -65 121 -215 186 -333 149 -272 232 -415 249 -429 7 -6 56 -20
108 -30 749 -154 1689 186 2709 980 509 396 1068 950 1421 1409 70 91 71 93
27 55 -26 -22 -136 -124 -245 -226 -789 -739 -1476 -1278 -2048 -1608 -166
-96 -486 -251 -486 -236 0 3 28 19 63 36 97 49 296 171 472 290 753 506 1487
1208 1942 1860 69 99 86 128 47 79 -599 -735 -1911 -1785 -2609 -2086 -108
-46 -264 -98 -272 -90 -2 1 43 22 100 46 516 218 1050 590 1555 1085 180 176
329 328 394 400 29 32 78 87 108 120 30 33 78 87 106 120 29 33 81 94 116 135
89 104 386 476 487 610 19 25 -154 -142 -385 -370 -807 -800 -1053 -1022
-1539 -1385 -204 -152 -433 -292 -630 -386 -167 -79 -187 -81 -68 -8 609 373
1410 1124 1978 1855 105 133 276 373 340 474 55 88 45 79 -58 -51 -156 -196
-309 -362 -631 -685 -409 -408 -726 -691 -1096 -980 -332 -258 -651 -455 -855
-526 -69 -25 -135 -41 -135 -34 0 2 42 27 93 56 245 139 572 373 832 596 185
158 548 519 720 717 226 259 468 568 678 864 79 112 353 511 371 541 11 19 0
14 -15 -7z"/>
<path d="M2866 4673 c537 -788 875 -1206 1350 -1673 403 -395 735 -650 1210
-927 38 -22 38 -23 9 -17 -322 60 -912 466 -1652 1136 -346 314 -821 806
-1030 1069 -129 161 -127 159 -87 94 137 -224 431 -610 686 -900 514 -583
1138 -1137 1620 -1436 134 -83 138 -87 69 -59 -326 128 -791 442 -1256 849
-343 301 -392 347 -959 910 -264 262 -469 460 -455 441 28 -42 269 -350 313
-401 17 -20 47 -55 66 -80 256 -320 681 -779 945 -1020 399 -363 744 -617
1113 -818 114 -62 307 -153 395 -186 68 -26 52 -28 -33 -4 -644 178 -2125
1321 -2823 2179 -47 58 80 -127 172 -250 191 -256 379 -466 682 -765 489 -481
1023 -893 1534 -1184 88 -50 156 -91 151 -91 -19 0 -293 132 -421 204 -604
338 -1304 886 -2195 1720 -223 209 -228 211 -79 24 332 -414 821 -901 1259
-1254 660 -531 1295 -879 1865 -1023 260 -65 504 -90 714 -72 147 12 330 46
348 64 14 14 124 207 258 452 54 99 129 233 167 299 37 65 68 121 68 125 0 3
-8 11 -18 18 -10 6 -35 46 -55 88 l-38 78 -42 -6 c-275 -35 -330 -39 -522 -34
-225 6 -365 26 -565 81 -526 145 -1026 475 -1580 1042 -252 259 -397 424 -929
1062 -193 232 -354 422 -357 422 -3 0 43 -71 102 -157z"/>
<path d="M8769 2236 c0 0 -6 -54 -13 -118 l-12 -118 34 -42 c84 -106 127 -241
119 -374 -4 -69 -12 -97 -57 -202 -30 -67 -54 -121 -56 -119 -1 1 -23 148 -49
327 -25 179 -51 340 -57 358 -23 75 -108 137 -220 162 -54 12 -58 12 -100 -13
-74 -43 -145 -114 -171 -170 -17 -36 -41 -144 -78 -349 -29 -164 -56 -298 -60
-298 -3 0 -36 22 -72 50 l-65 49 -36 -98 c-20 -54 -36 -100 -36 -104 0 -3 38
-31 85 -62 47 -31 85 -60 85 -64 0 -15 -73 -92 -134 -140 -35 -28 -95 -66
-132 -83 -60 -29 -79 -33 -149 -32 -59 0 -96 7 -139 24 -70 27 -100 56 -134
129 -28 62 -27 111 7 202 35 94 75 141 264 317 100 93 238 227 307 298 l126
129 16 125 c9 69 15 126 15 126 -1 1 -57 -39 -124 -90 -191 -144 -421 -272
-569 -316 -39 -12 -40 -13 -41 -59 -1 -25 -8 -66 -17 -90 -9 -24 -15 -45 -13
-47 1 -2 39 8 84 21 46 13 115 33 155 44 l73 20 -72 -65 c-134 -121 -251 -286
-293 -412 -64 -193 -34 -406 71 -511 81 -81 233 -113 339 -71 142 56 356 247
419 373 19 37 35 67 37 67 2 0 45 -14 96 -32 85 -30 103 -32 218 -32 111 0
133 3 200 27 114 42 110 41 110 23 0 -61 109 -246 204 -344 95 -101 178 -126
338 -102 101 14 156 50 222 144 52 73 71 109 124 241 56 137 65 182 57 292
-14 207 -107 410 -301 659 -125 161 -266 261 -439 313 -59 18 -164 41 -166 37z
m264 -302 c159 -81 308 -212 372 -329 91 -163 185 -441 185 -544 -1 -146 -150
-279 -323 -289 -93 -6 -149 11 -219 65 -124 95 -244 246 -220 276 6 7 30 60
53 117 22 58 50 127 61 154 44 112 58 350 32 534 -4 23 -4 42 0 42 4 0 30 -12
59 -26z m-565 -49 c103 -54 95 -36 167 -407 35 -183 62 -334 60 -337 -3 -2 -5
3 -5 12 0 21 2 21 -73 -5 -118 -40 -290 -23 -419 43 -45 23 -44 -11 -14 356
25 313 23 304 100 342 57 29 125 27 184 -4z m351 -760 c0 -5 -4 -3 -9 5 -5 8
-9 22 -9 30 0 16 17 -16 18 -35z"/>
<path d="M7978 653 c-21 -14 -38 -34 -38 -44 0 -24 5 -24 41 2 l29 20 0 -116
c0 -115 0 -116 23 -113 22 3 22 6 22 138 0 128 -1 135 -20 137 -11 1 -37 -9
-57 -24z"/>
<path d="M8165 658 c-15 -14 -28 -38 -31 -59 -5 -28 -1 -41 21 -67 21 -26 34
-32 65 -32 21 0 43 6 50 15 7 8 16 15 21 15 13 0 -1 -52 -19 -72 -19 -22 -70
-24 -78 -3 -8 19 -54 20 -54 1 0 -25 50 -56 89 -56 46 0 79 23 97 66 28 68 10
164 -37 198 -34 23 -93 21 -124 -6z m110 -38 c40 -45 -20 -109 -71 -75 -26 17
-33 62 -12 83 18 18 63 14 83 -8z"/>
<path d="M8430 652 c-52 -53 -52 -171 0 -224 77 -76 209 11 158 105 -6 12 -18
27 -27 34 -23 18 -81 16 -103 -4 -17 -15 -18 -15 -18 8 0 57 68 93 100 54 16
-19 50 -20 50 -1 0 26 -50 56 -92 56 -30 0 -46 -7 -68 -28z m98 -118 c24 -17
30 -62 10 -82 -7 -7 -24 -12 -40 -12 -54 0 -73 75 -25 98 29 14 29 14 55 -4z"/>
<path d="M8701 664 c-64 -45 -68 -178 -9 -241 28 -30 85 -31 121 -3 61 48 52
215 -12 250 -29 15 -73 12 -100 -6z m94 -54 c18 -35 19 -106 2 -140 -17 -34
-60 -39 -81 -8 -21 30 -21 126 0 156 22 32 60 29 79 -8z"/>
</g>
</svg>
